<?xml version="1.0" standalone="no"?>
<!DOCTYPE svg PUBLIC "-//W3C//DTD SVG 1.1//EN" "http://www.w3.org/Graphics/SVG/1.1/DTD/svg11.dtd" >
<svg xmlns="http://www.w3.org/2000/svg">
<metadata></metadata>
<defs>
<font id="klavikamedium_italic" horiz-adv-x="1105" >
<font-face units-per-em="2048" ascent="1536" descent="-512" />
<missing-glyph horiz-adv-x="430" />
<glyph unicode="&#xfb01;" horiz-adv-x="1245" d="M-14 -276q60 59 90 114.5t43 136.5l145 822h-153l34 200h154l25 144q28 161 109 233t245 72q160 0 346 -70l-49 -180q-63 21 -142.5 35t-136.5 14q-62 0 -89 -21t-36 -73l-26 -154h524l119 17l-178 -1014h-246l139 797h-393l-150 -844q-22 -121 -71 -205.5t-146 -171.5z " />
<glyph unicode="&#xfb02;" horiz-adv-x="1245" d="M-14 -276q60 59 90 114.5t43 136.5l145 822h-153l34 200h154l25 144q19 110 57.5 174t115 97.5t201.5 33.5q137 0 314 -41l252 35l-254 -1440h-246l215 1219q-167 30 -277 30q-64 0 -93 -22.5t-38 -75.5l-26 -154h248l-54 -200h-229l-150 -844q-22 -121 -71 -205.5 t-146 -171.5z" />
<glyph horiz-adv-x="0" />
<glyph horiz-adv-x="682" />
<glyph unicode=" "  horiz-adv-x="430" />
<glyph unicode="&#x09;" horiz-adv-x="430" />
<glyph unicode="&#xa0;" horiz-adv-x="430" />
<glyph unicode="!" horiz-adv-x="573" d="M70 0l53 299h248l-54 -299h-247zM203 444l10 353l106 608h246l-106 -608l-115 -353h-141z" />
<glyph unicode="&#x22;" horiz-adv-x="798" d="M205 899l90 506h176l-90 -506h-176zM563 899l90 506h176l-90 -506h-176z" />
<glyph unicode="#" horiz-adv-x="1427" d="M86 336l35 166h254l67 334h-256l35 165h256l68 322h178l-68 -322h326l68 322h178l-68 -322h244l-35 -165h-244l-69 -334h250l-35 -166h-250l-68 -336h-178l68 336h-324l-69 -336h-179l70 336h-254zM553 502h324l69 334h-325z" />
<glyph unicode="$" horiz-adv-x="1038" d="M31 45l57 199q177 -54 330 -54q83 0 126 16.5t63 50.5t32 105q10 62 10 91q0 46 -35.5 69t-146.5 53q-163 45 -222 96t-59 140q0 59 19 164q19 107 44 171.5t71.5 107.5t112 61.5t171.5 25.5l41 228h199l-41 -230q91 -7 209 -36l-47 -209q-151 34 -314 34q-81 0 -119 -13 t-54.5 -42.5t-28.5 -99.5q-11 -64 -11 -80q0 -46 35 -68t152 -57q164 -50 222 -101.5t58 -140.5q0 -54 -20 -164q-13 -74 -28 -125t-42 -97.5t-66 -76t-97 -49.5t-138 -28l-41 -228h-199l41 226q-152 9 -284 61z" />
<glyph unicode="%" horiz-adv-x="1769" d="M162 866q0 40 8 86l31 174q24 136 103 197t257 61q133 0 201.5 -59.5t68.5 -163.5q0 -29 -6 -67l-28 -164q-13 -71 -34.5 -120.5t-62 -90t-107.5 -60.5t-163 -20q-268 0 -268 227zM352 881q0 -78 107 -78q70 0 101 23t40 79l35 201q10 56 -14 85.5t-91 29.5 q-69 0 -99.5 -24t-39.5 -81l-35 -198q-4 -24 -4 -37zM449 66l776 1318l133 -79l-774 -1325zM987 207q0 40 8 86l31 174q24 136 103 197t257 61q133 0 202 -59.5t69 -163.5q0 -31 -6 -68l-29 -164q-13 -71 -34.5 -120.5t-62 -90t-107.5 -60t-163 -19.5q-268 0 -268 227z M1178 221q0 -78 106 -78q70 0 101 23.5t40 79.5l35 200q10 56 -13.5 85.5t-90.5 29.5q-69 0 -99.5 -23.5t-39.5 -80.5l-35 -199q-4 -24 -4 -37z" />
<glyph unicode="&#x26;" horiz-adv-x="1472" d="M70 240q0 32 6 73l63 361q32 182 134 263t300 81q159 0 248.5 -66.5t89.5 -175.5q0 -115 -73 -188h229q126 0 198.5 24t159.5 86l88 -143q-166 -149 -409 -149q-224 -426 -694 -426q-171 0 -255.5 67t-84.5 193zM311 250q0 -35 23.5 -53.5t81.5 -18.5q151 0 256.5 52 t191.5 176h-274l-45 182q72 20 111.5 59.5t39.5 91.5q0 39 -35.5 61.5t-95.5 22.5q-156 0 -180 -137l-68 -383q-6 -35 -6 -53z" />
<glyph unicode="'" horiz-adv-x="440" d="M205 899l90 506h176l-90 -506h-176z" />
<glyph unicode="(" horiz-adv-x="634" d="M117 373q0 359 126.5 662.5t397.5 523.5l145 -144q-230 -230 -327 -477t-97 -559q0 -132 35 -286.5t105 -305.5l-199 -100q-90 159 -138 341t-48 345z" />
<glyph unicode=")" horiz-adv-x="632" d="M-127 -170q230 230 327 477t97 559q0 289 -139 592l198 101q90 -159 138.5 -341.5t48.5 -345.5q0 -235 -51.5 -442t-171 -401t-302.5 -342z" />
<glyph unicode="*" horiz-adv-x="950" d="M195 1004l20 114h283l-113 248l111 57l114 -249l203 253l90 -69l-194 -240h282l-20 -114h-283l115 -242l-111 -57l-117 247l-204 -252l-90 70l188 234h-274z" />
<glyph unicode="+" horiz-adv-x="1050" d="M113 401v193h313v321h199v-321h313v-193h-313v-319h-199v319h-313z" />
<glyph unicode="," horiz-adv-x="555" d="M20 -215l146 215h-94l53 299h246l-56 -317l-204 -267z" />
<glyph unicode="-" horiz-adv-x="753" d="M135 473l37 205h508l-37 -205h-508z" />
<glyph unicode="." horiz-adv-x="567" d="M82 0l53 299h248l-53 -299h-248z" />
<glyph unicode="/" horiz-adv-x="948" d="M-25 -240l793 1624h231l-792 -1624h-232z" />
<glyph unicode="0" horiz-adv-x="1140" d="M94 262q0 38 8 84l113 641q33 188 147.5 272t354.5 84q177 0 277 -83.5t100 -219.5q0 -25 -7 -65l-112 -637q-16 -92 -45 -154t-84.5 -110.5t-146.5 -71t-224 -22.5q-198 0 -289.5 75t-91.5 207zM340 297q0 -57 34.5 -79.5t137.5 -22.5q116 0 162.5 39.5t64.5 138.5 l103 579q6 38 6 56q0 62 -39.5 91t-132.5 29q-112 0 -159.5 -40t-65.5 -138l-105 -588q-6 -38 -6 -65z" />
<glyph unicode="1" horiz-adv-x="778" d="M109 1104l421 219h226l-234 -1323h-246l185 1047l-268 -132z" />
<glyph unicode="2" horiz-adv-x="1030" d="M25 0l36 213q227 211 478 453q122 122 151.5 166.5t44.5 132.5l8 47q2 12 2 26q0 47 -41.5 67.5t-134.5 20.5q-70 0 -170 -13.5t-172 -31.5l-24 199q199 63 418 63q181 0 275.5 -70.5t94.5 -195.5q0 -31 -6 -65l-8 -47q-9 -54 -14.5 -79.5t-18.5 -63.5t-28 -62.5 t-44.5 -64t-68.5 -81t-98 -100.5q-168 -168 -308 -299h455l-37 -215h-790z" />
<glyph unicode="3" horiz-adv-x="1005" d="M31 47l51 186q172 -49 301 -49q90 0 136.5 13.5t65.5 42t29 86.5l17 92q4 28 4 39q0 53 -32.5 77.5t-110.5 24.5h-281l37 209h276q80 0 116.5 33.5t49.5 105.5l21 115q4 24 4 35q0 50 -39.5 68t-136.5 18q-108 0 -281 -33l-20 188q164 45 356 45q373 0 373 -235 q0 -26 -6 -61l-23 -129q-8 -45 -14.5 -70.5t-20 -58t-32.5 -52.5t-50.5 -39.5t-75.5 -33.5q69 -22 101.5 -75.5t32.5 -125.5q0 -26 -5 -57l-18 -105q-12 -68 -29 -114.5t-49.5 -88.5t-82 -66t-126.5 -38t-182 -14q-84 0 -184 17.5t-172 49.5z" />
<glyph unicode="4" horiz-adv-x="1146" d="M29 301l37 221l659 801h342l-145 -821h174l-29 -201h-180l-53 -301h-242l53 301h-616zM313 502h367l104 585z" />
<glyph unicode="5" horiz-adv-x="1017" d="M35 41l55 197q161 -45 313 -45q69 0 110.5 8t65 29t33 46t17.5 72l12 70q4 24 4 41q0 60 -44 82.5t-148 27.5q-2 0 -283 15l129 739h721l-37 -213h-477l-60 -338q79 -3 162 -10q287 -26 287 -260q0 -24 -8 -82l-13 -72q-13 -71 -27 -120t-38.5 -93t-58 -71t-84 -47 t-117.5 -28.5t-158 -8.5q-185 0 -356 61z" />
<glyph unicode="6" horiz-adv-x="1073" d="M94 254q0 44 10 106l95 535q31 178 89 272t165 135t295 41q159 0 301 -47l-45 -190q-131 31 -242 31q-74 0 -122.5 -6.5t-83.5 -19.5t-56 -40t-33.5 -62t-22.5 -91l-28 -164q118 32 254 32q152 0 221.5 -61.5t69.5 -179.5q0 -39 -9 -92l-16 -95q-12 -66 -25 -112t-36 -92 t-56.5 -75.5t-83 -53.5t-119 -34.5t-161.5 -10.5q-361 0 -361 274zM338 293q0 -56 33.5 -79.5t120.5 -23.5q99 0 141.5 32.5t56.5 113.5l21 119q4 32 4 41q0 42 -28.5 60.5t-92.5 18.5q-112 0 -217 -43l-33 -184q-6 -35 -6 -55z" />
<glyph unicode="7" horiz-adv-x="931" d="M51 0l672 1108h-573l36 215h830l-37 -207l-666 -1116h-262z" />
<glyph unicode="8" horiz-adv-x="1110" d="M82 242q0 32 6 73l18 103q17 96 78 155.5t187 100.5q-144 102 -144 223q0 23 4 43l15 82q15 88 42 145t78 98.5t131.5 59.5t200.5 18q163 0 258 -70t95 -192q0 -19 -7 -59l-16 -92q-18 -98 -61 -150.5t-154 -105.5q86 -47 124 -98t38 -117q0 -31 -4 -51l-17 -95 q-13 -74 -32 -124.5t-53.5 -93t-87 -66t-131 -36.5t-187.5 -13q-381 0 -381 262zM322 281q0 -53 39.5 -76t136.5 -23q114 0 161.5 32.5t61.5 111.5l10 57q4 24 4 43q0 44 -34 71.5t-138 73.5q-95 -35 -139.5 -60t-61.5 -51.5t-26 -74.5l-10 -59q-4 -24 -4 -45zM465 901 q0 -43 29.5 -72.5t107.5 -64.5q100 39 141 77t52 99l14 82q4 24 4 33q0 45 -34.5 66.5t-110.5 21.5q-94 0 -134.5 -30t-52.5 -101l-12 -72q-4 -24 -4 -39z" />
<glyph unicode="9" horiz-adv-x="1071" d="M66 29l45 190q135 -33 247 -33q74 0 122.5 6.5t83.5 20t56 40.5t33.5 62t22.5 91l29 163q-118 -32 -254 -32q-152 0 -221.5 61.5t-69.5 179.5q0 45 8 92l16 95q12 70 25.5 117t37 93.5t56.5 74.5t83 51t119 32.5t161 9.5q179 0 269.5 -75t90.5 -199q0 -44 -10 -106 l-94 -535q-31 -178 -89 -272t-165 -135t-295 -41q-161 0 -307 49zM406 827q0 -42 28 -60.5t92 -18.5q112 0 217 43l33 184q6 34 6 55q0 56 -33.5 79.5t-119.5 23.5q-100 0 -142.5 -32.5t-56.5 -113.5l-20 -119q-4 -32 -4 -41z" />
<glyph unicode=":" horiz-adv-x="573" d="M72 0l53 299h248l-54 -299h-247zM180 610l53 299h248l-53 -299h-248z" />
<glyph unicode=";" horiz-adv-x="573" d="M20 -215l146 215h-94l53 299h246l-56 -317l-204 -267zM180 610l53 299h248l-53 -299h-248z" />
<glyph unicode="&#x3c;" horiz-adv-x="1189" d="M102 434v131l883 453l76 -146l-735 -372l735 -373l-76 -145z" />
<glyph unicode="=" horiz-adv-x="1003" d="M113 233v166h809v-166h-809zM113 625v166h809v-166h-809z" />
<glyph unicode="&#x3e;" horiz-adv-x="1189" d="M129 127l735 373l-735 372l76 146l882 -453v-131l-882 -452z" />
<glyph unicode="?" horiz-adv-x="1007" d="M244 0l53 299h248l-53 -299h-248zM252 1384q174 41 371 41q202 0 292.5 -68.5t90.5 -205.5q0 -35 -11 -107q-12 -66 -19.5 -99.5t-23 -77t-36.5 -71.5t-54.5 -61t-83.5 -67q-195 -136 -284 -195l-123 186q117 80 247 175q78 59 98 90t34 110q8 58 8 72q0 56 -40.5 79 t-148.5 23q-127 0 -293 -34z" />
<glyph unicode="@" horiz-adv-x="1511" d="M123 547q0 256 91 443.5t270.5 290.5t430.5 103q264 0 415 -134.5t151 -350.5q0 -108 -23.5 -194.5t-72.5 -152t-129.5 -101t-188.5 -35.5q-102 0 -149 59q-89 -59 -207 -59q-91 0 -136.5 54.5t-31.5 133.5l35 199q20 107 75 154t178 47q137 0 261 -64l-68 -387 q24 -8 51 -8q63 0 111 28t76 77t41.5 110.5t13.5 134.5q0 162 -108.5 252t-307.5 90q-286 0 -449 -184.5t-163 -491.5q0 -208 117 -320t356 -112q220 0 432 90l20 -139q-192 -100 -456 -100q-161 0 -283.5 42t-199 118t-114.5 178.5t-38 228.5zM690 616q-5 -33 8 -52t58 -19 q70 0 127 35l49 278q-62 16 -117 16q-80 0 -92 -73z" />
<glyph unicode="A" horiz-adv-x="1325" d="M-31 0l670 1364h344l205 -1364h-264l-37 291h-506l-137 -291h-275zM479 504h381l-74 657z" />
<glyph unicode="B" horiz-adv-x="1185" d="M61 0l240 1364h530q322 0 322 -219q0 -29 -6 -64l-27 -151q-16 -88 -61 -140t-144 -85q170 -53 170 -209q0 -29 -4 -54l-24 -139q-13 -73 -39 -125.5t-73.5 -94t-126 -62.5t-187.5 -21h-570zM350 205h264q97 0 139.5 28t55.5 105l20 115q2 12 2 30q0 51 -33.5 79 t-99.5 28h-278zM455 788h233q156 0 178 130l23 129q4 24 4 32q0 80 -109 80h-8h-256z" />
<glyph unicode="C" horiz-adv-x="1062" d="M92 309q0 40 8 86l105 592q38 216 165.5 306.5t379.5 90.5q170 0 368 -53l-53 -217q-194 41 -340 41q-134 0 -192.5 -43.5t-81.5 -171.5l-91 -510q-8 -50 -8 -74q0 -78 47 -112.5t158 -34.5q166 0 344 35l8 -217q-168 -47 -395 -47q-211 0 -316.5 89.5t-105.5 239.5z" />
<glyph unicode="D" horiz-adv-x="1236" d="M61 0l242 1364h500q104 0 182 -26t123.5 -72t67.5 -103t22 -125q0 -42 -8 -86l-105 -592q-12 -67 -31 -118t-55 -98.5t-88 -77.5t-132 -48t-185 -18h-533zM354 223h242q127 0 177.5 47.5t70.5 159.5l90 512q6 35 6 62q0 69 -44.5 103t-150.5 34h-229z" />
<glyph unicode="E" horiz-adv-x="1093" d="M61 0l240 1364h838l-41 -223h-582l-57 -326h538l-39 -223h-538l-66 -369h582l-37 -223h-838z" />
<glyph unicode="F" horiz-adv-x="1062" d="M61 0l242 1364h840l-39 -223h-588l-63 -363h542l-39 -223h-542l-99 -555h-254z" />
<glyph unicode="G" horiz-adv-x="1208" d="M92 301q0 47 8 94l105 592q24 137 81 221.5t170.5 130t293.5 45.5q214 0 415 -65l-53 -217q-204 53 -389 53q-137 0 -193.5 -46t-78.5 -169l-91 -510q-8 -44 -8 -88q0 -68 44 -102.5t157 -34.5q120 0 227 22l74 404h240l-103 -574q-190 -77 -465 -77q-224 0 -329 84.5 t-105 236.5z" />
<glyph unicode="H" horiz-adv-x="1308" d="M61 0l240 1364h254l-98 -563h493l99 563h254l-240 -1364h-254l100 578h-493l-101 -578h-254z" />
<glyph unicode="I" horiz-adv-x="581" d="M72 0l239 1364h254l-239 -1364h-254z" />
<glyph unicode="J" horiz-adv-x="581" d="M-152 -242q147 115 170 138q40 39 51 86q2 7 3 16l239 1366h254l-246 -1399q-10 -55 -21.5 -87t-49 -76.5t-98 -92.5t-175.5 -131z" />
<glyph unicode="K" horiz-adv-x="1218" d="M61 0l240 1364h254l-240 -1364h-254zM471 696l514 668h309l-542 -674l319 -690h-280z" />
<glyph unicode="L" horiz-adv-x="1032" d="M61 0l240 1364h254l-201 -1141h564l-39 -223h-818z" />
<glyph unicode="M" horiz-adv-x="1636" d="M35 0l311 1364h270l179 -924l516 924h278l-172 -1364h-254l119 877l-393 -699h-277l-131 701l-196 -879h-250z" />
<glyph unicode="N" horiz-adv-x="1390" d="M61 0l240 1364h317l338 -1038l183 1038h245l-239 -1364h-320l-338 1012l-178 -1012h-248z" />
<glyph unicode="O" horiz-adv-x="1273" d="M94 317q0 50 8 91l101 567q24 138 86 226t182 135.5t305 47.5q224 0 340.5 -100.5t116.5 -259.5q0 -34 -6 -72l-99 -557q-26 -144 -86.5 -232t-183.5 -135.5t-317 -47.5q-225 0 -336 90.5t-111 246.5zM352 350q0 -75 52 -111t178 -36q136 0 207 53.5t90 159.5l94 536 q4 32 4 47q0 80 -53 121t-174 41q-135 0 -206.5 -51.5t-90.5 -157.5l-95 -534q-6 -37 -6 -68z" />
<glyph unicode="P" horiz-adv-x="1177" d="M61 0l240 1364h506q401 0 401 -293q0 -50 -8 -94l-31 -174q-13 -73 -31.5 -125t-53 -98.5t-85.5 -75t-128.5 -44.5t-180.5 -16h-297l-78 -444h-254zM432 664h275q110 0 153.5 35.5t59.5 125.5l24 140q6 35 6 57q0 61 -35.5 90t-119.5 29h-279z" />
<glyph unicode="Q" horiz-adv-x="1273" d="M94 317q0 50 8 91l101 567q24 138 86 226t182 135.5t305 47.5q224 0 340.5 -100.5t116.5 -259.5q0 -34 -6 -72l-99 -557q-26 -144 -86.5 -232t-183.5 -135.5t-317 -47.5q-225 0 -336 90.5t-111 246.5zM299 -326l37 197q316 -4 600 -74l-39 -200q-279 59 -598 77zM352 350 q0 -75 52 -111t178 -36q136 0 207 53.5t90 159.5l94 536q4 32 4 47q0 80 -53 121t-174 41q-135 0 -206.5 -51.5t-90.5 -157.5l-95 -534q-6 -37 -6 -68z" />
<glyph unicode="R" horiz-adv-x="1327" d="M61 0l240 1364h514q205 0 306.5 -76t101.5 -217q0 -31 -9 -84l-32 -184q-24 -136 -81 -208t-183 -110l260 -485h-283l-246 453h-256l-78 -453h-254zM434 672h285q77 0 121 18.5t63.5 52t30.5 95.5l22 127q7 40 7 57q0 65 -40 92t-128 27h-281z" />
<glyph unicode="S" horiz-adv-x="1087" d="M37 63l55 197q218 -65 371 -65q97 0 146 17t69.5 51.5t34.5 107.5q10 58 10 86q0 52 -41 75t-184 60q-172 43 -240 114t-68 185q0 43 15 135q13 75 29.5 126.5t44 93.5t62.5 67t88.5 41.5t119.5 23t158 6.5q205 0 380 -53l-43 -211q-196 47 -358 47q-133 0 -175.5 -28.5 t-59.5 -128.5q-11 -64 -11 -86q0 -50 42.5 -75.5t174.5 -60.5q183 -47 252.5 -109t69.5 -175q0 -44 -14 -133q-16 -89 -36 -147.5t-56 -108.5t-91 -77.5t-138 -42.5t-200 -15q-94 0 -210.5 22t-196.5 61z" />
<glyph unicode="T" horiz-adv-x="1114" d="M156 1141l39 223h1019l-40 -223h-381l-201 -1141h-254l201 1141h-383z" />
<glyph unicode="U" horiz-adv-x="1292" d="M115 322q0 36 6 73l170 969h254l-166 -946q-6 -37 -6 -68q0 -75 48.5 -111t168.5 -36q141 0 204.5 55t82.5 162l165 944h254l-170 -971q-13 -75 -34.5 -132.5t-63.5 -112t-102 -90t-152.5 -57t-212.5 -21.5q-222 0 -334 95.5t-112 246.5z" />
<glyph unicode="V" horiz-adv-x="1206" d="M176 1364h252l131 -1145l512 1145h270l-632 -1364h-369z" />
<glyph unicode="W" horiz-adv-x="1925" d="M184 1364h240l84 -1077l453 1077h311l74 -1088l440 1088h256l-569 -1364h-322l-78 1092l-452 -1092h-322z" />
<glyph unicode="X" horiz-adv-x="1261" d="M-27 0l551 709l-282 655h264l201 -479l354 479h289l-537 -686l307 -678h-268l-215 487l-373 -487h-291z" />
<glyph unicode="Y" horiz-adv-x="1132" d="M156 1364h252l182 -690l409 690h287l-612 -969l-70 -395h-254l72 408z" />
<glyph unicode="Z" horiz-adv-x="1169" d="M92 209l766 938h-633l39 217h891l-2 -211l-770 -940h623l-39 -213h-871z" />
<glyph unicode="[" horiz-adv-x="665" d="M37 -258l330 1876h432l-35 -197h-186l-261 -1482h185l-35 -197h-430z" />
<glyph unicode="\" horiz-adv-x="954" d="M272 1384h217l220 -1624h-217z" />
<glyph unicode="]" horiz-adv-x="665" d="M-78 -258l35 197h186l260 1482h-184l35 197h430l-330 -1876h-432z" />
<glyph unicode="^" horiz-adv-x="968" d="M164 864l389 541h178l227 -580l-165 -63l-172 452l-316 -454z" />
<glyph unicode="_" horiz-adv-x="899" d="M-2 -20h903v-84h-903v84z" />
<glyph unicode="`" horiz-adv-x="643" d="M256 1311l111 131q94 -94 245 -211l-96 -119q-145 93 -260 199z" />
<glyph unicode="a" horiz-adv-x="1056" d="M66 207q0 42 10 104l51 291q10 56 19.5 96t24 82.5t33 72t45 58.5t61 47t80 32.5t103.5 21t130 6.5q71 0 185 -19.5t191 -44.5l-168 -954h-206l-2 111q-144 -131 -326 -131q-231 0 -231 227zM311 240q0 -54 68 -54q55 0 129.5 44t136.5 106l82 461q-79 14 -141 14 q-58 0 -96 -11.5t-60.5 -39t-33.5 -59.5t-21 -87l-62 -350q-2 -12 -2 -24z" />
<glyph unicode="b" horiz-adv-x="1060" d="M59 45l240 1360l252 35l-90 -510q160 88 315 88q232 0 232 -227q0 -37 -11 -105l-51 -291q-21 -118 -52.5 -192t-90 -126.5t-147.5 -74.5t-224 -22q-71 0 -186 19.5t-187 45.5zM332 201q84 -15 145 -15q58 0 97.5 11.5t64 38.5t37.5 60.5t22 86.5l62 350q2 12 2 25 q0 53 -70 53q-59 0 -130.5 -24.5t-137.5 -67.5z" />
<glyph unicode="c" horiz-adv-x="819" d="M53 227q0 37 10 99l60 336q36 202 141 279t318 77q57 0 125.5 -12t111.5 -29l-55 -197q-92 29 -186 29q-107 0 -152 -38t-64 -142l-59 -338q-4 -24 -4 -35q0 -66 76 -66q112 0 293 64l24 -199q-157 -75 -338 -75q-156 0 -228.5 62t-72.5 185z" />
<glyph unicode="d" horiz-adv-x="1081" d="M66 207q0 42 10 104l51 291q10 56 18 92t21.5 80.5t30.5 72.5t42 58.5t59 49t79 34t103.5 22.5t131.5 7q77 0 164 -19l72 406l252 35l-254 -1440h-209v111q-144 -131 -340 -131q-231 0 -231 227zM311 240q0 -54 70 -54q72 0 152.5 47t125.5 103l82 463q-54 12 -145 12 q-59 0 -98 -11.5t-63.5 -37.5t-37.5 -59.5t-22 -86.5l-62 -352q-2 -12 -2 -24z" />
<glyph unicode="e" horiz-adv-x="937" d="M61 192q-2 20 -2 42q0 48 11 102l53 303q34 189 137 284t318 95q144 0 231.5 -70t87.5 -190q0 -132 -91.5 -216.5t-297.5 -148.5q-113 -35 -193 -55l-8 -47q-4 -29 -4.5 -53t20 -39t62.5 -15q77 0 179.5 31.5t203.5 83.5l53 -188q-94 -57 -222 -94t-249 -37 q-96 0 -160 26t-93 73t-36 113zM354 559q62 18 150 45q83 26 120.5 60t37.5 84q0 34 -28 55.5t-77 21.5q-81 0 -126 -44t-58 -119z" />
<glyph unicode="f" horiz-adv-x="727" d="M-14 -276q60 59 90 114.5t43 136.5l145 822h-153l34 200h154l27 154q28 161 103.5 228t240.5 67q128 0 239 -43l-49 -191q-103 29 -170 29q-58 0 -84 -19.5t-35 -70.5l-26 -154h270l-53 -200h-252l-150 -844q-22 -121 -71 -205.5t-146 -171.5z" />
<glyph unicode="g" horiz-adv-x="1071" d="M2 -346l47 182q226 -67 393 -67q74 0 100.5 24.5t37.5 91.5l38 219q-153 -84 -315 -84q-231 0 -231 228q0 42 10 104l45 250q18 99 39 163.5t55.5 116.5t87.5 80t128 42t184 14q93 0 202 -22t189 -54l-193 -1094q-28 -158 -111 -215t-259 -57q-79 0 -208 21t-239 57z M317 281q0 -54 70 -54q59 0 130.5 24.5t137.5 67.5l86 478q-79 14 -145 14q-58 0 -97.5 -11.5t-64 -38.5t-37.5 -60.5t-22 -86.5l-56 -309q-2 -12 -2 -24z" />
<glyph unicode="h" d="M51 0l248 1405l252 35l-94 -535q95 51 196.5 82t182.5 31q96 0 139 -54.5t43 -144.5q0 -43 -10 -98l-127 -721h-246l125 711q2 10 2 26q0 43 -51 43q-48 0 -135 -35t-162 -81l-117 -664h-246z" />
<glyph unicode="i" horiz-adv-x="532" d="M51 0l172 979l252 35l-178 -1014h-246zM250 1124l49 281l252 35l-49 -279z" />
<glyph unicode="j" horiz-adv-x="522" d="M-154 -254q22 17 54.5 43t44.5 35.5t32 26t26 24.5t16 21t13.5 24.5t7.5 25.5t7 34l176 999l252 35l-186 -1061q-8 -46 -15.5 -72t-27 -61.5t-52.5 -67.5t-88.5 -76t-138.5 -100zM250 1124l49 281l252 35l-49 -279z" />
<glyph unicode="k" horiz-adv-x="1017" d="M51 0l248 1405l252 35l-254 -1440h-246zM422 504l364 514l263 -43l-365 -473l207 -502h-260z" />
<glyph unicode="l" horiz-adv-x="532" d="M51 0l248 1405l252 35l-254 -1440h-246z" />
<glyph unicode="m" horiz-adv-x="1689" d="M51 0l172 977l213 37l-4 -121q102 56 210.5 90.5t193.5 34.5q143 0 174 -127q104 61 212.5 94t196.5 33q96 0 139.5 -54.5t43.5 -144.5q0 -41 -11 -98l-127 -721h-245l124 711q3 15 3 26q0 43 -52 43q-47 0 -134.5 -35.5t-162.5 -80.5l-116 -664h-246l125 711q2 10 2 26 q0 43 -51 43q-47 0 -134.5 -35.5t-162.5 -80.5l-117 -664h-246z" />
<glyph unicode="n" d="M51 0l172 977l213 37l-4 -121q102 56 210.5 90.5t193.5 34.5q96 0 139 -54.5t43 -144.5q0 -43 -10 -98l-127 -721h-246l125 711q2 10 2 26q0 43 -51 43q-47 0 -134.5 -35.5t-162.5 -80.5l-117 -664h-246z" />
<glyph unicode="o" horiz-adv-x="1067" d="M68 305q0 39 6 80l43 240q18 97 50.5 166t90 122t146.5 79t212 26q184 0 280.5 -90t96.5 -230q0 -34 -6 -71l-47 -267q-16 -93 -47 -158.5t-87.5 -118t-148 -78t-219.5 -25.5q-94 0 -166.5 26t-116 71t-65.5 102.5t-22 125.5zM311 315q0 -129 164 -129q189 0 219 174 l49 279q5 30 5 45q0 127 -164 127q-96 0 -150.5 -44.5t-71.5 -137.5l-47 -269q-4 -24 -4 -45z" />
<glyph unicode="p" horiz-adv-x="1081" d="M-27 -438l254 1435h209v-110q144 131 340 131q232 0 232 -227q0 -37 -11 -105l-51 -291q-9 -49 -16 -82t-18.5 -73.5t-24 -66.5t-32.5 -56t-44.5 -48.5t-59 -37.5t-76 -29t-95.5 -16t-119 -6q-81 0 -164 18l-72 -401zM332 199q58 -13 145 -13q59 0 98 11.5t63.5 37.5 t37.5 59.5t22 86.5l62 352q2 12 2 25q0 53 -70 53q-73 0 -153 -47t-125 -102z" />
<glyph unicode="q" horiz-adv-x="1081" d="M66 207q0 42 10 104l51 291q21 118 52.5 192t90 127t147.5 75t224 22q70 0 185.5 -20t187.5 -46l-240 -1355l-252 -35l90 506q-160 -88 -315 -88q-231 0 -231 227zM311 240q0 -54 70 -54q124 0 268 93l92 518q-79 14 -145 14q-58 0 -97.5 -11.5t-64 -38.5t-37.5 -60.5 t-22 -86.5l-62 -350q-2 -12 -2 -24z" />
<glyph unicode="r" horiz-adv-x="665" d="M51 0l172 977l215 37l-10 -146q133 97 256 148l18 -223q-106 -57 -296 -179l-109 -614h-246z" />
<glyph unicode="s" horiz-adv-x="847" d="M29 43l47 186q147 -51 278 -51q80 0 107.5 17.5t36.5 70.5q2 12 2 22q0 32 -19 54q-25 28 -131 82q-104 51 -154 98q-48 48 -58 104q-4 22 -4 45q0 39 9 85q26 152 104 207t273 55q69 0 152 -14t145 -35l-41 -189q-129 39 -258 39q-79 0 -104.5 -12.5t-34.5 -63.5 q-3 -16 -3 -29q0 -28 14 -44q20 -22 104 -68q63 -34 100 -56t70 -47.5t48 -45t24.5 -47t8.5 -56t-8 -69.5q-20 -117 -58 -179t-117 -92t-220 -30q-70 0 -160.5 18t-152.5 45z" />
<glyph unicode="t" horiz-adv-x="716" d="M63 801l37 196h158l45 258l252 35l-51 -293h254l-39 -196h-250l-100 -570q-5 -27 4.5 -39t36.5 -12q60 0 172 45l53 -168q-144 -77 -313 -77q-116 0 -168 66q-39 48 -38 120q0 26 5 55l102 580h-160z" />
<glyph unicode="u" d="M80 178q0 43 10 98l123 703l252 35l-127 -727q-2 -14 -2 -27q0 -43 51 -43q46 0 133.5 36t163.5 81l113 645l252 35l-179 -1014h-208l4 104q-101 -56 -210 -90t-194 -34q-96 0 -139 54t-43 144z" />
<glyph unicode="v" horiz-adv-x="974" d="M109 973l243 35l94 -791l236 531q29 67 29 137q0 45 -15 94l240 35q18 -59 18 -125q0 -109 -34 -178l-330 -711h-338z" />
<glyph unicode="w" horiz-adv-x="1435" d="M113 969l233 37q47 -226 47 -521q0 -109 -6 -227l283 547l-35 164l219 35l152 -766q92 333 137 487q18 63 18 127q0 57 -16 117l231 45q21 -86 21 -158q0 -91 -54 -246l-208 -610h-299l-103 498l-262 -498h-285q-2 347 -15.5 549.5t-57.5 419.5z" />
<glyph unicode="x" horiz-adv-x="970" d="M-43 0l401 502l-215 469l230 43l149 -355l246 338h264l-407 -526l219 -471h-248l-137 289l-240 -289h-262z" />
<glyph unicode="y" horiz-adv-x="974" d="M18 -246q124 43 190 96t128 150h-84l-143 973l243 35l94 -791l236 531q29 67 29 137q0 45 -15 94l240 35q18 -59 18 -125q0 -104 -34 -178l-330 -711q-47 -93 -85.5 -150.5t-96 -112.5t-134 -95t-188.5 -78z" />
<glyph unicode="z" horiz-adv-x="944" d="M76 190l520 613h-424l29 194h682l-2 -188l-523 -612h430l-32 -197h-672z" />
<glyph unicode="{" horiz-adv-x="694" d="M104 567l37 193h43q90 0 107 100l86 488q26 148 94.5 209t210.5 61h174l-35 -201h-104q-43 0 -66 -18t-30 -62l-76 -430q-10 -54 -22 -89.5t-35 -71t-64 -55.5t-100 -27q72 -8 107.5 -43t36.5 -86t-9 -115l-76 -432q-2 -12 -2 -25q0 -29 18.5 -41t55.5 -12h100l-35 -201 h-176q-115 0 -166 43t-51 137q0 38 10 103l86 483q16 92 -71 92h-48z" />
<glyph unicode="|" horiz-adv-x="534" d="M225 -430v2048h166v-2048h-166z" />
<glyph unicode="}" horiz-adv-x="696" d="M-102 -291l34 201h105q43 0 66 18t30 62l76 430q8 43 16 72.5t24.5 62t38.5 52.5t58 36t84 21q-72 8 -107.5 42.5t-36.5 85.5t9 115l76 432q2 12 2 25q0 29 -18.5 41t-55.5 12h-100l34 201h177q115 0 166 -43t51 -137q0 -32 -11 -103l-86 -483q-16 -92 72 -92h47 l-37 -193h-43q-89 0 -106 -100l-86 -487q-26 -148 -94.5 -209.5t-210.5 -61.5h-174z" />
<glyph unicode="~" horiz-adv-x="985" d="M78 473q61 129 124.5 189.5t164.5 60.5q38 0 83.5 -22t80.5 -48.5t77 -48.5t74 -22q29 0 50 8t37 26.5t28 38.5t29 52q5 11 8 16l122 -78q-49 -119 -112.5 -184.5t-165.5 -65.5q-47 0 -96 22t-82.5 48t-73 48t-68.5 22q-54 0 -86 -32.5t-71 -107.5z" />
<glyph unicode="&#xa1;" horiz-adv-x="571" d="M0 -403l106 608l115 352h141l-10 -352l-106 -608h-246zM195 698l53 299h248l-54 -299h-247z" />
<glyph unicode="&#xa2;" horiz-adv-x="880" d="M100 412q0 30 11 98l59 336q30 171 109 251t229 97l35 190h166l-33 -184q115 -10 190 -39l-55 -196q-89 28 -186 28q-107 0 -151.5 -37.5t-63.5 -142.5l-60 -338q-4 -24 -4 -35q0 -65 76 -65q56 0 139.5 19t153.5 44l24 -198q-114 -55 -245 -70l-33 -190h-166l33 188 q-228 26 -228 244z" />
<glyph unicode="&#xa3;" horiz-adv-x="1095" d="M57 0l35 207q126 71 197 157t71 199q0 19 -2 29h-223l25 180h162q-43 92 -43 213q0 181 104.5 269.5t327.5 88.5q175 0 344 -47l-37 -192q-151 35 -295 35q-112 0 -157.5 -36t-45.5 -136q0 -92 39 -195h369l-29 -180h-319q4 -28 4 -51q0 -192 -189 -336h555l-37 -205 h-856z" />
<glyph unicode="&#xa4;" horiz-adv-x="1126" d="M115 291l112 123q-12 37 -12 78q0 42 4 65l47 268q17 93 53 138l-100 122l154 132l112 -140q80 23 179 23q82 0 149 -23l125 137l149 -133l-126 -139q10 -29 10 -63q0 -19 -6 -56l-50 -276q-15 -86 -45 -131l107 -129l-154 -131l-114 141q-80 -25 -191 -25q-76 0 -135 19 l-119 -133zM428 532q0 -42 29 -56.5t96 -14.5q75 0 111 20.5t47 85.5l41 232q2 14 2 35q0 44 -30.5 60.5t-92.5 16.5q-73 0 -111 -24t-49 -88l-39 -230q-4 -28 -4 -37z" />
<glyph unicode="&#xa5;" horiz-adv-x="1134" d="M63 252l29 158h324l-54 194h-237l29 158h163l-155 561h252l172 -649l383 649h286l-354 -561h184l-28 -158h-256l-123 -194h346l-29 -158h-352l-43 -252h-254l43 252h-326z" />
<glyph unicode="&#xa6;" horiz-adv-x="534" d="M225 420h166v-850h-166v850zM225 768v850h166v-850h-166z" />
<glyph unicode="&#xa7;" horiz-adv-x="1110" d="M195 803q0 213 24 344q21 124 92.5 180.5t235.5 56.5q83 0 172.5 -16.5t152.5 -40.5l-41 -164q-165 47 -288 47q-59 0 -86.5 -22t-36.5 -76q-23 -126 -23 -309q0 -332 72 -770l-195 -33q-79 424 -79 803zM252 -326l41 164q165 -47 289 -47q59 0 86.5 22t36.5 76 q22 121 22 310q0 332 -72 770l195 32q80 -430 80 -802q0 -208 -25 -344q-14 -83 -46 -132.5t-100.5 -77.5t-180.5 -28q-83 0 -173 16.5t-153 40.5z" />
<glyph unicode="&#xa8;" horiz-adv-x="864" d="M246 1141l39 215l200 8l-36 -215zM635 1141l39 215l200 8l-36 -215z" />
<glyph unicode="&#xa9;" horiz-adv-x="1611" d="M147 682q0 195 85 354t246 253.5t370 94.5q156 0 288 -55t221.5 -150t139 -223.5t49.5 -273.5t-50 -273t-139 -223t-221 -150.5t-288 -55.5q-157 0 -289.5 55.5t-222 150.5t-139.5 223t-50 273zM315 682q0 -152 64.5 -274.5t187 -194.5t281.5 -72q238 0 385 154.5 t147 386.5q0 152 -64.5 275.5t-187 195.5t-280.5 72q-159 0 -281.5 -72t-187 -195t-64.5 -276zM578 571v228q0 125 64 183t220 58q103 0 199 -34l-27 -138q-88 23 -160 23q-69 0 -93.5 -20.5t-24.5 -75.5v-220q0 -55 24.5 -75.5t93.5 -20.5q72 0 160 23l27 -137 q-99 -35 -199 -35q-156 0 -220 58t-64 183z" />
<glyph unicode="&#xaa;" horiz-adv-x="782" d="M195 913q0 30 6 68l32 182q10 57 20.5 93.5t32 71.5t53.5 54.5t83 31t123 11.5q125 0 237 -41l-104 -600h-131l-2 70q-91 -84 -205 -84q-145 0 -145 143zM350 952q-5 -26 4 -38.5t37 -12.5q35 0 82.5 28t85.5 66l53 291q-58 8 -90 8q-69 0 -95.5 -28t-37.5 -95z" />
<glyph unicode="&#xab;" horiz-adv-x="1024" d="M74 500l317 393l152 -127l-230 -268l131 -303l-178 -89zM518 500l318 393l151 -127l-229 -268l131 -303l-178 -89z" />
<glyph unicode="&#xac;" horiz-adv-x="1101" d="M123 510v192h825v-522h-203v330h-622z" />
<glyph unicode="&#xad;" horiz-adv-x="753" d="M135 473l37 205h508l-37 -205h-508z" />
<glyph unicode="&#xae;" horiz-adv-x="915" d="M205 1055q0 159 100 264.5t264 105.5q165 0 266 -105.5t101 -264.5q0 -158 -101 -265.5t-266 -107.5q-163 0 -263.5 107.5t-100.5 265.5zM305 1055q0 -119 68 -197t196 -78t197.5 78t69.5 197t-69.5 196.5t-197.5 77.5t-196 -77.5t-68 -196.5zM453 895v336h135 q106 0 106 -94v-35q0 -61 -49 -82l86 -125h-76l-80 113h-57v-113h-65zM518 1067h66q45 0 45 37v31q0 21 -11 27.5t-36 6.5h-64v-102z" />
<glyph unicode="&#xaf;" horiz-adv-x="757" d="M236 1122l28 164h504l-29 -164h-503z" />
<glyph unicode="&#xb0;" horiz-adv-x="724" d="M195 1030q0 139 79 226t228 87q104 0 163.5 -58.5t59.5 -147.5q0 -133 -81 -222.5t-228 -89.5q-102 0 -161.5 57.5t-59.5 147.5zM326 1051q0 -111 108 -111q75 0 116.5 52.5t41.5 125.5q0 50 -27 80.5t-80 30.5q-74 0 -116.5 -49.5t-42.5 -128.5z" />
<glyph unicode="&#xb1;" horiz-adv-x="1081" d="M133 0v182h825v-182h-825zM133 625v192h313v322h199v-322h313v-192h-313v-320h-199v320h-313z" />
<glyph unicode="&#xb2;" horiz-adv-x="825" d="M160 502l22 137q117 106 221 203q110 103 145 145t42 84l2 12q4 28 4 39q0 27 -16.5 41t-57.5 17q-106 0 -219 -29l-27 152q130 40 256 40q123 0 185.5 -53.5t62.5 -142.5q0 -29 -4 -53l-6 -35q-9 -54 -32.5 -94.5t-82.5 -100.5q-147 -153 -206 -209h264l-25 -153h-528z " />
<glyph unicode="&#xb3;" horiz-adv-x="794" d="M164 526l33 133q118 -28 215 -28q58 0 81 15.5t29 55.5l15 74q2 12 2 21q0 27 -18 38t-56 11h-201l25 137h188q46 0 66.5 19t27.5 55l11 63q2 12 2 27q0 29 -21.5 40t-77.5 11q-105 0 -176 -14l-8 135q105 24 217 24q131 0 188.5 -39t57.5 -118q0 -13 -4 -49l-10 -62 q-11 -66 -36 -98.5t-89 -56.5q86 -34 86 -117q0 -23 -6 -53l-9 -56q-22 -121 -81.5 -165t-213.5 -44q-116 0 -237 41z" />
<glyph unicode="&#xb4;" horiz-adv-x="620" d="M236 1245q141 72 323 199l82 -148q-136 -92 -330 -184z" />
<glyph unicode="&#xb5;" d="M-31 -403l244 1382l252 35l-127 -727q-2 -14 -2 -27q0 -43 51 -43q46 0 133.5 36t163.5 81l113 645l252 35l-179 -1014h-208l4 104q-96 -52 -198 -86t-185 -38l-68 -383h-246z" />
<glyph unicode="&#xb6;" horiz-adv-x="1071" d="M172 831q0 243 146 388t384 145l-157 -893q-170 0 -271.5 100.5t-101.5 259.5zM324 -287q200 164 242 207.5t52 102.5l238 1341h191l-238 -1341q-23 -127 -73 -185t-307 -258q1 -2 -5 -4z" />
<glyph unicode="&#xb7;" horiz-adv-x="557" d="M154 532l53 299h248l-54 -299h-247z" />
<glyph unicode="&#xb8;" horiz-adv-x="591" d="M-20 -379l30 98q66 -20 119 -20q117 0 117 70q0 41 -60 41q-44 0 -100 -5l-29 33l74 193h111l-49 -144q44 7 65 7q57 0 88 -33.5t31 -81.5q0 -189 -250 -189q-68 0 -147 31z" />
<glyph unicode="&#xb9;" horiz-adv-x="712" d="M209 1178l299 145h141l-145 -825h-180l110 618l-172 -72z" />
<glyph unicode="&#xba;" horiz-adv-x="788" d="M195 977q0 21 6 55l24 146q21 124 93 185.5t223 61.5q116 0 176.5 -56t60.5 -144q0 -17 -4 -45l-29 -168q-22 -121 -91.5 -181.5t-225.5 -60.5q-119 0 -176 57.5t-57 149.5zM350 1012q-9 -55 14.5 -83t88.5 -28q119 0 137 111l31 174q2 12 2 28q0 80 -103 80 q-119 0 -139 -114z" />
<glyph unicode="&#xbb;" horiz-adv-x="1024" d="M49 233l230 269l-132 303l179 88l192 -393l-317 -394zM494 233l229 269l-131 303l178 88l193 -393l-318 -394z" />
<glyph unicode="&#xbc;" horiz-adv-x="1759" d="M219 1178l299 145h141l-145 -825h-180l110 618l-172 -72zM365 -20l862 1431l116 -70l-862 -1435zM909 166l15 133l391 526h252l-92 -518h118l-22 -141h-121l-29 -166h-170l29 166h-371zM1104 307h201l67 381z" />
<glyph unicode="&#xbd;" horiz-adv-x="1808" d="M219 1178l299 145h141l-145 -825h-180l110 618l-172 -72zM358 -20l863 1431l116 -70l-862 -1435zM1030 0l23 137q117 106 221 203q110 102 144.5 144.5t41.5 84.5l2 13q4 28 4 39q0 27 -16 40.5t-57 16.5q-106 0 -219 -29l-27 152q134 41 256 41q123 0 185.5 -54 t62.5 -143q0 -29 -4 -53l-7 -35q-9 -54 -32.5 -94.5t-81.5 -100.5q-120 -124 -207 -208h264l-24 -154h-529z" />
<glyph unicode="&#xbe;" horiz-adv-x="1826" d="M154 526l32 133q118 -28 215 -28q60 0 82.5 13.5t28.5 53.5l14 80q2 10 2 21q0 47 -73 47h-201l25 137h188q46 0 66.5 19t27.5 55l12 69q2 10 2 23q0 29 -22 39t-78 10q-93 0 -176 -14l-8 135q91 24 217 24q131 0 188.5 -37t57.5 -116q0 -27 -4 -51l-13 -70 q-13 -71 -36 -101t-87 -48q88 -33 88 -115q0 -13 -6 -49l-12 -70q-22 -120 -80 -160.5t-213 -40.5q-116 0 -237 41zM432 -20l862 1431l117 -70l-862 -1435zM977 166l14 133l391 526h252l-92 -518h119l-23 -141h-120l-29 -166h-170l29 166h-371zM1171 307h201l68 381z" />
<glyph unicode="&#xbf;" horiz-adv-x="1007" d="M41 -150q0 42 10 107q12 66 19.5 99.5t23 77t36.5 72t54.5 61.5t83.5 67q138 96 285 194l123 -186q-158 -108 -248 -174q-78 -59 -97.5 -90t-33.5 -111q-8 -58 -8 -71q0 -56 40.5 -79.5t147.5 -23.5q122 0 293 35l25 -211q-174 -41 -371 -41q-202 0 -292.5 68.5 t-90.5 205.5zM502 698l53 299h248l-53 -299h-248z" />
<glyph unicode="&#xc0;" horiz-adv-x="1325" d="M-31 0l670 1364h344l205 -1364h-264l-37 291h-506l-137 -291h-275zM479 504h381l-74 657zM590 1630l108 131q72 -70 224 -184l-95 -121q-112 65 -237 174z" />
<glyph unicode="&#xc1;" horiz-adv-x="1325" d="M-31 0l670 1364h344l205 -1364h-264l-37 291h-506l-137 -291h-275zM479 504h381l-74 657zM737 1587q167 97 273 174l84 -147q-139 -97 -281 -160z" />
<glyph unicode="&#xc2;" horiz-adv-x="1325" d="M-31 0l670 1364h344l205 -1364h-264l-37 291h-506l-137 -291h-275zM479 504h381l-74 657zM588 1577q156 89 280 176q74 -76 224 -186l-80 -111q-83 41 -174 107q-88 -63 -181 -107z" />
<glyph unicode="&#xc3;" horiz-adv-x="1325" d="M-31 0l670 1364h344l205 -1364h-264l-37 291h-506l-137 -291h-275zM479 504h381l-74 657zM518 1556q38 72 95.5 115t125.5 43q40 0 82.5 -22t80 -44t65.5 -22q32 0 53.5 18t42.5 58l104 -57q-39 -84 -88 -128t-131 -44q-45 0 -84.5 21.5t-73 43t-63.5 21.5 q-23 0 -47.5 -16t-36.5 -29t-35 -41z" />
<glyph unicode="&#xc4;" horiz-adv-x="1327" d="M-31 0l670 1364h344l205 -1364h-264l-37 291h-506l-137 -291h-275zM479 504h381l-74 657zM520 1493l35 199h207l-35 -199h-207zM948 1493l35 199h207l-35 -199h-207z" />
<glyph unicode="&#xc5;" horiz-adv-x="1325" d="M-31 0l670 1364h344l205 -1364h-264l-37 291h-506l-137 -291h-275zM479 504h381l-74 657zM680 1583q0 90 52 140.5t145 50.5q67 0 107 -35.5t40 -89.5q0 -86 -50 -141.5t-151 -55.5q-63 0 -103 36.5t-40 94.5zM782 1593q0 -53 56 -53q39 0 60.5 25t21.5 67q0 54 -56 54 q-37 0 -59.5 -25.5t-22.5 -67.5z" />
<glyph unicode="&#xc6;" horiz-adv-x="1761" d="M-31 0l670 1364h1167l-41 -223h-749l49 -326h600l-39 -223h-528l55 -369h451l-37 -223h-643l-37 291h-506l-137 -291h-275zM479 504h381l-74 657z" />
<glyph unicode="&#xc7;" horiz-adv-x="1069" d="M92 303q0 41 8 88l107 596q37 208 166 302.5t377 94.5q173 0 374 -53l-57 -219q-204 43 -342 43q-129 0 -189.5 -49t-82.5 -172l-91 -506q-6 -38 -6 -70q0 -79 48 -113t153 -34q166 0 344 35l10 -217q-159 -44 -352 -47l-33 -95q47 7 68 7q57 0 87 -33.5t30 -81.5 q0 -189 -250 -189q-65 0 -148 31l31 98q70 -20 121 -20q115 0 115 70q0 41 -54 41q-47 0 -106 -5l-27 33l53 146q-178 13 -266 98t-88 221z" />
<glyph unicode="&#xc8;" horiz-adv-x="1093" d="M61 0l240 1364h838l-41 -223h-582l-57 -326h538l-39 -223h-538l-66 -369h582l-37 -223h-838zM528 1630l109 131q76 -73 223 -184l-94 -121q-115 66 -238 174z" />
<glyph unicode="&#xc9;" horiz-adv-x="1093" d="M61 0l240 1364h838l-41 -223h-582l-57 -326h538l-39 -223h-538l-66 -369h582l-37 -223h-838zM596 1587q163 94 272 174l84 -147q-141 -99 -280 -160z" />
<glyph unicode="&#xca;" horiz-adv-x="1093" d="M61 0l240 1364h838l-41 -223h-582l-57 -326h538l-39 -223h-538l-66 -369h582l-37 -223h-838zM500 1577q156 89 280 176q74 -76 224 -186l-80 -111q-83 41 -174 107q-88 -63 -181 -107z" />
<glyph unicode="&#xcb;" horiz-adv-x="1093" d="M61 0l240 1364h838l-41 -223h-582l-57 -326h538l-39 -223h-538l-66 -369h582l-37 -223h-838zM428 1493l35 199h207l-35 -199h-207zM856 1493l35 199h207l-35 -199h-207z" />
<glyph unicode="&#xcc;" horiz-adv-x="581" d="M72 0l239 1364h254l-239 -1364h-254zM231 1630l109 131q76 -73 223 -184l-94 -121q-115 66 -238 174z" />
<glyph unicode="&#xcd;" horiz-adv-x="581" d="M72 0l239 1364h254l-239 -1364h-254zM371 1587q163 94 272 174l84 -147q-139 -97 -281 -160z" />
<glyph unicode="&#xce;" horiz-adv-x="581" d="M72 0l239 1364h254l-239 -1364h-254zM213 1577q161 92 281 176q76 -79 223 -186l-80 -111q-83 41 -174 107q-90 -65 -180 -107z" />
<glyph unicode="&#xcf;" horiz-adv-x="581" d="M72 0l239 1364h254l-239 -1364h-254zM154 1493l34 199h207l-35 -199h-206zM582 1493l34 199h207l-35 -199h-206z" />
<glyph unicode="&#xd0;" horiz-adv-x="1308" d="M102 588l35 203h135l103 573h499q104 0 182.5 -26t124 -72t67.5 -103t22 -125q0 -42 -8 -86l-105 -592q-12 -67 -31 -118t-55 -98.5t-88 -77.5t-132 -48t-185 -18h-533l105 588h-136zM426 223h242q127 0 177 47.5t70 159.5l91 512q6 35 6 62q0 69 -44.5 103t-150.5 34 h-229l-62 -350h224l-35 -203h-226z" />
<glyph unicode="&#xd1;" horiz-adv-x="1390" d="M61 0l240 1364h317l338 -1038l183 1038h245l-239 -1364h-320l-338 1012l-178 -1012h-248zM561 1556q38 72 95.5 115t125.5 43q40 0 82.5 -22t80 -44t65.5 -22q32 0 53.5 18t42.5 58l104 -57q-39 -84 -88 -128t-131 -44q-45 0 -84.5 21.5t-73 43t-63.5 21.5 q-23 0 -47.5 -16t-36.5 -29t-35 -41z" />
<glyph unicode="&#xd2;" horiz-adv-x="1273" d="M94 317q0 50 8 91l101 567q24 138 86 226t182 135.5t305 47.5q224 0 340.5 -100.5t116.5 -259.5q0 -34 -6 -72l-99 -557q-26 -144 -86.5 -232t-183.5 -135.5t-317 -47.5q-225 0 -336 90.5t-111 246.5zM352 350q0 -75 52 -111t178 -36q136 0 207 53.5t90 159.5l94 536 q4 32 4 47q0 80 -53 121t-174 41q-135 0 -206.5 -51.5t-90.5 -157.5l-95 -534q-6 -37 -6 -68zM553 1630l109 131q76 -73 223 -184l-94 -121q-115 66 -238 174z" />
<glyph unicode="&#xd3;" horiz-adv-x="1273" d="M94 317q0 50 8 91l101 567q24 138 86 226t182 135.5t305 47.5q224 0 340.5 -100.5t116.5 -259.5q0 -34 -6 -72l-99 -557q-26 -144 -86.5 -232t-183.5 -135.5t-317 -47.5q-225 0 -336 90.5t-111 246.5zM352 350q0 -75 52 -111t178 -36q136 0 207 53.5t90 159.5l94 536 q4 32 4 47q0 80 -53 121t-174 41q-135 0 -206.5 -51.5t-90.5 -157.5l-95 -534q-6 -37 -6 -68zM678 1587q163 94 272 174l84 -147q-141 -99 -280 -160z" />
<glyph unicode="&#xd4;" horiz-adv-x="1273" d="M94 317q0 50 8 91l101 567q24 138 86 226t182 135.5t305 47.5q224 0 340.5 -100.5t116.5 -259.5q0 -34 -6 -72l-99 -557q-26 -144 -86.5 -232t-183.5 -135.5t-317 -47.5q-225 0 -336 90.5t-111 246.5zM352 350q0 -75 52 -111t178 -36q136 0 207 53.5t90 159.5l94 536 q4 32 4 47q0 80 -53 121t-174 41q-135 0 -206.5 -51.5t-90.5 -157.5l-95 -534q-6 -37 -6 -68zM557 1577q161 92 281 176q76 -79 223 -186l-80 -111q-83 41 -174 107q-90 -65 -180 -107z" />
<glyph unicode="&#xd5;" horiz-adv-x="1273" d="M94 317q0 50 8 91l101 567q24 138 86 226t182 135.5t305 47.5q224 0 340.5 -100.5t116.5 -259.5q0 -34 -6 -72l-99 -557q-26 -144 -86.5 -232t-183.5 -135.5t-317 -47.5q-225 0 -336 90.5t-111 246.5zM352 350q0 -75 52 -111t178 -36q136 0 207 53.5t90 159.5l94 536 q4 32 4 47q0 80 -53 121t-174 41q-135 0 -206.5 -51.5t-90.5 -157.5l-95 -534q-6 -37 -6 -68zM471 1556q38 72 95.5 115t125.5 43q40 0 82.5 -22t80 -44t65.5 -22q32 0 53.5 18t42.5 58l104 -57q-39 -84 -88 -128t-131 -44q-45 0 -84.5 21.5t-73 43t-63.5 21.5 q-23 0 -47.5 -16t-36.5 -29t-35 -41z" />
<glyph unicode="&#xd6;" horiz-adv-x="1273" d="M94 317q0 50 8 91l101 567q24 138 86 226t182 135.5t305 47.5q224 0 340.5 -100.5t116.5 -259.5q0 -34 -6 -72l-99 -557q-26 -144 -86.5 -232t-183.5 -135.5t-317 -47.5q-225 0 -336 90.5t-111 246.5zM352 350q0 -75 52 -111t178 -36q136 0 207 53.5t90 159.5l94 536 q4 32 4 47q0 80 -53 121t-174 41q-135 0 -206.5 -51.5t-90.5 -157.5l-95 -534q-6 -37 -6 -68zM496 1493l34 199h207l-35 -199h-206zM924 1493l34 199h207l-35 -199h-206z" />
<glyph unicode="&#xd7;" horiz-adv-x="1007" d="M131 250l238 242l-238 239l139 141l240 -239l238 239l139 -141l-238 -239l238 -242l-139 -141l-238 241l-240 -241z" />
<glyph unicode="&#xd8;" horiz-adv-x="1273" d="M29 -55l131 170q-66 81 -66 202q0 50 8 91l101 567q24 138 86 226t182 135.5t305 47.5t303 -75l138 178l88 -68l-142 -184q70 -88 70 -211q0 -34 -6 -72l-99 -557q-26 -144 -86.5 -232t-183.5 -135.5t-317 -47.5q-187 0 -295 63l-127 -166zM352 365l578 749 q-53 47 -180 47q-135 0 -206.5 -51.5t-90.5 -157.5l-95 -534q-6 -30 -6 -53zM399 242q51 -39 183 -39q136 0 207 53.5t90 159.5l94 536q4 28 4 41z" />
<glyph unicode="&#xd9;" horiz-adv-x="1292" d="M115 322q0 36 6 73l170 969h254l-166 -946q-6 -37 -6 -68q0 -75 48.5 -111t168.5 -36q141 0 204.5 55t82.5 162l165 944h254l-170 -971q-13 -75 -34.5 -132.5t-63.5 -112t-102 -90t-152.5 -57t-212.5 -21.5q-222 0 -334 95.5t-112 246.5zM608 1630l109 131 q76 -73 223 -184l-94 -121q-115 66 -238 174z" />
<glyph unicode="&#xda;" horiz-adv-x="1292" d="M115 322q0 36 6 73l170 969h254l-166 -946q-6 -37 -6 -68q0 -75 48.5 -111t168.5 -36q141 0 204.5 55t82.5 162l165 944h254l-170 -971q-13 -75 -34.5 -132.5t-63.5 -112t-102 -90t-152.5 -57t-212.5 -21.5q-222 0 -334 95.5t-112 246.5zM676 1587q163 94 272 174 l84 -147q-141 -99 -280 -160z" />
<glyph unicode="&#xdb;" horiz-adv-x="1292" d="M115 322q0 36 6 73l170 969h254l-166 -946q-6 -37 -6 -68q0 -75 48.5 -111t168.5 -36q141 0 204.5 55t82.5 162l165 944h254l-170 -971q-13 -75 -34.5 -132.5t-63.5 -112t-102 -90t-152.5 -57t-212.5 -21.5q-222 0 -334 95.5t-112 246.5zM580 1577q156 89 280 176 q76 -79 223 -186l-79 -111q-86 43 -175 107q-90 -65 -180 -107z" />
<glyph unicode="&#xdc;" horiz-adv-x="1292" d="M115 322q0 36 6 73l170 969h254l-166 -946q-6 -37 -6 -68q0 -75 48.5 -111t168.5 -36q141 0 204.5 55t82.5 162l165 944h254l-170 -971q-13 -75 -34.5 -132.5t-63.5 -112t-102 -90t-152.5 -57t-212.5 -21.5q-222 0 -334 95.5t-112 246.5zM504 1493l35 199h206l-34 -199 h-207zM932 1493l35 199h207l-35 -199h-207z" />
<glyph unicode="&#xdd;" horiz-adv-x="1132" d="M156 1364h252l182 -690l409 690h287l-612 -969l-70 -395h-254l72 408zM610 1587q167 97 273 174l84 -147q-139 -97 -281 -160z" />
<glyph unicode="&#xde;" horiz-adv-x="1183" d="M61 0l240 1364h254l-41 -227h252q401 0 401 -293q0 -50 -8 -94l-31 -175q-13 -73 -31.5 -125t-53 -98.5t-85.5 -74.5t-128.5 -44t-180.5 -16h-297l-39 -217h-252zM391 436h275q110 0 153.5 36t59.5 126l24 139q6 35 6 58q0 60 -35.5 89t-119.5 29h-279z" />
<glyph unicode="&#xdf;" horiz-adv-x="1210" d="M-86 -276q69 67 94 118.5t41 141.5l191 1087q23 132 72.5 211.5t146 121.5t250.5 42q179 0 280 -74.5t101 -197.5q0 -78 -29 -150.5t-96 -163.5q-89 -119 -100 -141t-11 -43q0 -22 18.5 -50t81.5 -85q79 -73 107.5 -116.5t28.5 -88.5q0 -86 -17.5 -148.5t-57.5 -111 t-111.5 -72.5t-174.5 -24q-129 0 -235 34l38 185q94 -23 189 -23q68 0 97.5 22t29.5 85q0 18 -15 35.5t-74 73.5q-20 19 -32 30q-123 115 -123 201q0 67 22.5 120.5t90.5 141.5q75 97 100 148t25 104q0 104 -152 104q-100 0 -145 -39.5t-62 -138.5l-194 -1106 q-21 -118 -66.5 -199t-152.5 -182z" />
<glyph unicode="&#xe0;" horiz-adv-x="1056" d="M66 207q0 42 10 104l51 291q10 56 19.5 96t24 82.5t33 72t45 58.5t61 47t80 32.5t103.5 21t130 6.5q71 0 185 -19.5t191 -44.5l-168 -954h-206l-2 111q-144 -131 -326 -131q-231 0 -231 227zM311 240q0 -54 68 -54q55 0 129.5 44t136.5 106l82 461q-79 14 -141 14 q-58 0 -96 -11.5t-60.5 -39t-33.5 -59.5t-21 -87l-62 -350q-2 -12 -2 -24zM449 1311l110 131q90 -90 246 -211l-96 -119q-145 93 -260 199z" />
<glyph unicode="&#xe1;" horiz-adv-x="1056" d="M66 207q0 42 10 104l51 291q10 56 19.5 96t24 82.5t33 72t45 58.5t61 47t80 32.5t103.5 21t130 6.5q71 0 185 -19.5t191 -44.5l-168 -954h-206l-2 111q-144 -131 -326 -131q-231 0 -231 227zM311 240q0 -54 68 -54q55 0 129.5 44t136.5 106l82 461q-79 14 -141 14 q-58 0 -96 -11.5t-60.5 -39t-33.5 -59.5t-21 -87l-62 -350q-2 -12 -2 -24zM485 1245q145 74 324 199l82 -148q-136 -92 -330 -184z" />
<glyph unicode="&#xe2;" horiz-adv-x="1056" d="M66 207q0 42 10 104l51 291q10 56 19.5 96t24 82.5t33 72t45 58.5t61 47t80 32.5t103.5 21t130 6.5q71 0 185 -19.5t191 -44.5l-168 -954h-206l-2 111q-144 -131 -326 -131q-231 0 -231 227zM311 240q0 -54 68 -54q55 0 129.5 44t136.5 106l82 461q-79 14 -141 14 q-58 0 -96 -11.5t-60.5 -39t-33.5 -59.5t-21 -87l-62 -350q-2 -12 -2 -24zM391 1217q178 105 316 210q108 -120 237 -221l-80 -108q-98 53 -188 133q-105 -76 -213 -133z" />
<glyph unicode="&#xe3;" horiz-adv-x="1056" d="M66 207q0 42 10 104l51 291q10 56 19.5 96t24 82.5t33 72t45 58.5t61 47t80 32.5t103.5 21t130 6.5q71 0 185 -19.5t191 -44.5l-168 -954h-206l-2 111q-144 -131 -326 -131q-231 0 -231 227zM311 240q0 -54 68 -54q55 0 129.5 44t136.5 106l82 461q-79 14 -141 14 q-58 0 -96 -11.5t-60.5 -39t-33.5 -59.5t-21 -87l-62 -350q-2 -12 -2 -24zM348 1208q88 158 221 158q40 0 82.5 -22t80 -44t65.5 -22q33 0 53.5 17.5t42.5 58.5l104 -58q-39 -85 -87 -128.5t-130 -43.5q-37 0 -70.5 13.5t-54.5 29.5t-47.5 29.5t-50.5 13.5q-56 0 -119 -86z " />
<glyph unicode="&#xe4;" horiz-adv-x="1056" d="M66 207q0 42 10 104l51 291q10 56 19.5 96t24 82.5t33 72t45 58.5t61 47t80 32.5t103.5 21t130 6.5q71 0 185 -19.5t191 -44.5l-168 -954h-206l-2 111q-144 -131 -326 -131q-231 0 -231 227zM311 240q0 -54 68 -54q55 0 129.5 44t136.5 106l82 461q-79 14 -141 14 q-58 0 -96 -11.5t-60.5 -39t-33.5 -59.5t-21 -87l-62 -350q-2 -12 -2 -24zM360 1141l39 215l201 8l-37 -215zM750 1141l38 215l201 8l-37 -215z" />
<glyph unicode="&#xe5;" horiz-adv-x="1056" d="M66 207q0 42 10 104l51 291q10 56 19.5 96t24 82.5t33 72t45 58.5t61 47t80 32.5t103.5 21t130 6.5q71 0 185 -19.5t191 -44.5l-168 -954h-206l-2 111q-144 -131 -326 -131q-231 0 -231 227zM311 240q0 -54 68 -54q55 0 129.5 44t136.5 106l82 461q-79 14 -141 14 q-58 0 -96 -11.5t-60.5 -39t-33.5 -59.5t-21 -87l-62 -350q-2 -12 -2 -24zM502 1253q0 94 57.5 150.5t155.5 56.5q70 0 110.5 -39.5t40.5 -97.5q0 -91 -54.5 -152t-158.5 -61q-66 0 -108.5 40.5t-42.5 102.5zM606 1266q0 -64 62 -64q43 0 68.5 29.5t25.5 75.5q0 63 -62 63 q-40 0 -67 -30t-27 -74z" />
<glyph unicode="&#xe6;" horiz-adv-x="1439" d="M35 225q0 172 90.5 249t259.5 77h236l20 111q6 34 6 57q0 54 -38 75t-136 21q-125 0 -287 -31l-24 183q179 51 354 51q211 0 277 -123q107 123 305 123q153 0 235 -69.5t82 -190.5q0 -340 -581 -387l-13 -70q-4 -24 -4 -37q0 -42 26 -62t87 -20q84 0 165.5 25t182.5 76 l49 -179q-195 -124 -426 -124q-192 0 -272 106q-77 -59 -155.5 -82.5t-172.5 -23.5q-127 0 -196.5 69t-69.5 176zM268 244q0 -78 94 -78q107 0 216 61q-3 64 12 144h-166q-81 3 -118.5 -24t-37.5 -103zM866 557q156 16 234 58t78 124q0 86 -99 86q-162 0 -196 -178z" />
<glyph unicode="&#xe7;" horiz-adv-x="819" d="M53 227q0 37 10 99l60 336q36 202 141 279t318 77q57 0 125.5 -12t111.5 -29l-55 -197q-92 29 -186 29q-107 0 -152 -38t-64 -142l-59 -338q-4 -24 -4 -35q0 -66 76 -66q112 0 293 64l24 -199q-117 -59 -272 -71l-33 -97q44 7 66 7q57 0 87.5 -33.5t30.5 -81.5 q0 -189 -249 -189q-69 0 -148 31l31 98q66 -20 119 -20q116 0 116 70q0 41 -59 41q-44 0 -100 -5l-29 33l53 144q-131 9 -191.5 70.5t-60.5 174.5z" />
<glyph unicode="&#xe8;" horiz-adv-x="937" d="M61 192.5q-7 65.5 9 143.5l53 303q34 189 137 284t318 95q144 0 231.5 -70t87.5 -190q0 -132 -91.5 -216.5t-297.5 -148.5q-113 -35 -193 -55l-8 -47q-4 -29 -4.5 -53t20 -39t62.5 -15q77 0 179.5 31.5t203.5 83.5l53 -188q-94 -57 -222 -94t-249 -37q-96 0 -160 26 t-93 73.5t-36 113zM352 1311l111 131q90 -90 246 -211l-97 -119q-145 93 -260 199zM354 559q62 18 150 45q83 26 120.5 60t37.5 84q0 34 -28 55.5t-77 21.5q-81 0 -126 -44t-58 -119z" />
<glyph unicode="&#xe9;" horiz-adv-x="937" d="M61 192.5q-7 65.5 9 143.5l53 303q34 189 137 284t318 95q144 0 231.5 -70t87.5 -190q0 -132 -91.5 -216.5t-297.5 -148.5q-113 -35 -193 -55l-8 -47q-4 -29 -4.5 -53t20 -39t62.5 -15q77 0 179.5 31.5t203.5 83.5l53 -188q-94 -57 -222 -94t-249 -37q-96 0 -160 26 t-93 73.5t-36 113zM354 559q62 18 150 45q83 26 120.5 60t37.5 84q0 34 -28 55.5t-77 21.5q-81 0 -126 -44t-58 -119zM401 1245q145 74 324 199l82 -148q-136 -92 -330 -184z" />
<glyph unicode="&#xea;" horiz-adv-x="937" d="M61 192.5q-7 65.5 9 143.5l53 303q34 189 137 284t318 95q144 0 231.5 -70t87.5 -190q0 -132 -91.5 -216.5t-297.5 -148.5q-113 -35 -193 -55l-8 -47q-4 -29 -4.5 -53t20 -39t62.5 -15q77 0 179.5 31.5t203.5 83.5l53 -188q-94 -57 -222 -94t-249 -37q-96 0 -160 26 t-93 73.5t-36 113zM334 1217q173 102 315 210q106 -117 238 -221l-80 -108q-100 54 -189 133q-107 -78 -212 -133zM354 559q62 18 150 45q83 26 120.5 60t37.5 84q0 34 -28 55.5t-77 21.5q-81 0 -126 -44t-58 -119z" />
<glyph unicode="&#xeb;" horiz-adv-x="937" d="M61 192.5q-7 65.5 9 143.5l53 303q34 189 137 284t318 95q144 0 231.5 -70t87.5 -190q0 -132 -91.5 -216.5t-297.5 -148.5q-113 -35 -193 -55l-8 -47q-4 -29 -4.5 -53t20 -39t62.5 -15q77 0 179.5 31.5t203.5 83.5l53 -188q-94 -57 -222 -94t-249 -37q-96 0 -160 26 t-93 73.5t-36 113zM307 1141l39 215l201 8l-37 -215zM354 559q62 18 150 45q83 26 120.5 60t37.5 84q0 34 -28 55.5t-77 21.5q-81 0 -126 -44t-58 -119zM696 1141l39 215l201 8l-37 -215z" />
<glyph unicode="&#xec;" horiz-adv-x="532" d="M51 0l172 979l252 35l-178 -1014h-246zM109 1311l110 131q90 -90 246 -211l-96 -119q-145 93 -260 199z" />
<glyph unicode="&#xed;" horiz-adv-x="532" d="M51 0l172 979l252 35l-178 -1014h-246zM270 1245q145 74 324 199l82 -148q-136 -92 -330 -184z" />
<glyph unicode="&#xee;" horiz-adv-x="532" d="M51 0l172 979l252 35l-178 -1014h-246zM113 1217q173 102 315 210q106 -117 238 -221l-80 -108q-100 54 -189 133q-105 -76 -213 -133z" />
<glyph unicode="&#xef;" horiz-adv-x="532" d="M51 0l172 979l252 35l-178 -1014h-246zM94 1141l39 215l201 8l-37 -215zM483 1141l39 215l201 8l-37 -215z" />
<glyph unicode="&#xf0;" horiz-adv-x="1034" d="M72 248q0 41 8 88l24 143q33 191 123.5 276t276.5 85q114 0 211 -41q8 62 8 82q0 69 -21 112t-63 72l-190 -131l-62 90l156 109q-79 41 -215 73l78 197q205 -35 335 -119l136 92l61 -88l-107 -74q68 -66 101 -140.5t33 -178.5q0 -60 -19 -174l-67 -383q-16 -90 -43 -152 t-78 -110.5t-134.5 -72t-203.5 -23.5q-189 0 -268.5 71.5t-79.5 196.5zM317 276q0 -50 30.5 -70t105.5 -20q92 0 128.5 31.5t51.5 120.5l45 258q-98 31 -176 31q-66 0 -102 -29.5t-48 -99.5l-28 -162q-7 -44 -7 -60z" />
<glyph unicode="&#xf1;" d="M51 0l172 977l213 37l-4 -121q102 56 210.5 90.5t193.5 34.5q96 0 139 -54.5t43 -144.5q0 -43 -10 -98l-127 -721h-246l125 711q2 10 2 26q0 43 -51 43q-47 0 -134.5 -35.5t-162.5 -80.5l-117 -664h-246zM354 1208q88 158 221 158q40 0 82.5 -22t80 -44t65.5 -22 q33 0 53.5 17.5t42.5 58.5l105 -58q-39 -84 -87.5 -128t-130.5 -44q-37 0 -70.5 13.5t-54.5 29.5t-47.5 29.5t-50.5 13.5q-56 0 -119 -86z" />
<glyph unicode="&#xf2;" horiz-adv-x="1067" d="M68 305q0 39 6 80l43 240q18 97 50.5 166t90 122t146.5 79t212 26q184 0 280.5 -90t96.5 -230q0 -34 -6 -71l-47 -267q-16 -93 -47 -158.5t-87.5 -118t-148 -78t-219.5 -25.5q-94 0 -166.5 26t-116 71t-65.5 102.5t-22 125.5zM311 315q0 -129 164 -129q189 0 219 174 l49 279q5 30 5 45q0 127 -164 127q-96 0 -150.5 -44.5t-71.5 -137.5l-47 -269q-4 -24 -4 -45zM379 1311l110 131q90 -90 246 -211l-96 -119q-145 93 -260 199z" />
<glyph unicode="&#xf3;" horiz-adv-x="1067" d="M68 305q0 39 6 80l43 240q18 97 50.5 166t90 122t146.5 79t212 26q184 0 280.5 -90t96.5 -230q0 -34 -6 -71l-47 -267q-16 -93 -47 -158.5t-87.5 -118t-148 -78t-219.5 -25.5q-94 0 -166.5 26t-116 71t-65.5 102.5t-22 125.5zM311 315q0 -129 164 -129q189 0 219 174 l49 279q5 30 5 45q0 127 -164 127q-96 0 -150.5 -44.5t-71.5 -137.5l-47 -269q-4 -24 -4 -45zM477 1245q145 74 324 199l82 -148q-136 -92 -330 -184z" />
<glyph unicode="&#xf4;" horiz-adv-x="1067" d="M68 305q0 39 6 80l43 240q18 97 50.5 166t90 122t146.5 79t212 26q184 0 280.5 -90t96.5 -230q0 -34 -6 -71l-47 -267q-16 -93 -47 -158.5t-87.5 -118t-148 -78t-219.5 -25.5q-94 0 -166.5 26t-116 71t-65.5 102.5t-22 125.5zM311 315q0 -129 164 -129q189 0 219 174 l49 279q5 30 5 45q0 127 -164 127q-96 0 -150.5 -44.5t-71.5 -137.5l-47 -269q-4 -24 -4 -45zM371 1217q173 102 315 210q106 -117 238 -221l-80 -108q-100 54 -189 133q-105 -76 -213 -133z" />
<glyph unicode="&#xf5;" horiz-adv-x="1067" d="M68 305q0 39 6 80l43 240q18 97 50.5 166t90 122t146.5 79t212 26q184 0 280.5 -90t96.5 -230q0 -34 -6 -71l-47 -267q-16 -93 -47 -158.5t-87.5 -118t-148 -78t-219.5 -25.5q-94 0 -166.5 26t-116 71t-65.5 102.5t-22 125.5zM311 315q0 -129 164 -129q189 0 219 174 l49 279q5 30 5 45q0 127 -164 127q-96 0 -150.5 -44.5t-71.5 -137.5l-47 -269q-4 -24 -4 -45zM322 1208q88 158 221 158q40 0 82.5 -22t79.5 -44t65 -22q33 0 53.5 17.5t42.5 58.5l105 -58q-39 -85 -87 -128.5t-130 -43.5q-46 0 -86.5 21.5t-74 43t-63.5 21.5 q-25 0 -49 -15.5t-37.5 -30.5t-31.5 -40z" />
<glyph unicode="&#xf6;" horiz-adv-x="1067" d="M68 305q0 39 6 80l43 240q18 97 50.5 166t90 122t146.5 79t212 26q184 0 280.5 -90t96.5 -230q0 -34 -6 -71l-47 -267q-16 -93 -47 -158.5t-87.5 -118t-148 -78t-219.5 -25.5q-94 0 -166.5 26t-116 71t-65.5 102.5t-22 125.5zM311 315q0 -129 164 -129q189 0 219 174 l49 279q5 30 5 45q0 127 -164 127q-96 0 -150.5 -44.5t-71.5 -137.5l-47 -269q-4 -24 -4 -45zM354 1141l39 215l201 8l-37 -215zM743 1141l39 215l201 8l-37 -215z" />
<glyph unicode="&#xf7;" horiz-adv-x="1103" d="M133 420v160h838v-160h-838zM436 20v242h232v-242h-232zM436 733v242h232v-242h-232z" />
<glyph unicode="&#xf8;" horiz-adv-x="1067" d="M12 -43l121 143q-65 79 -65 205q0 39 6 80l43 240q18 97 50.5 166t90 122t146.5 79t212 26q150 0 244 -62l123 144l70 -60l-125 -145q65 -79 65 -197q0 -34 -6 -71l-47 -267q-16 -93 -47 -158.5t-87.5 -118t-148 -78t-219.5 -25.5q-147 0 -239 61l-119 -141zM311 309 l398 467q-41 35 -125 35q-96 0 -150.5 -44.5t-71.5 -137.5l-47 -269q-4 -24 -4 -45v-6zM350 219q45 -33 125 -33q189 0 219 174l49 279q5 30 5 43z" />
<glyph unicode="&#xf9;" d="M80 178q0 43 10 98l123 703l252 35l-127 -727q-2 -14 -2 -27q0 -43 51 -43q46 0 133.5 36t163.5 81l113 645l252 35l-179 -1014h-208l4 104q-101 -56 -210 -90t-194 -34q-96 0 -139 54t-43 144zM408 1311l110 131q90 -90 246 -211l-96 -119q-145 93 -260 199z" />
<glyph unicode="&#xfa;" d="M80 178q0 43 10 98l123 703l252 35l-127 -727q-2 -14 -2 -27q0 -43 51 -43q46 0 133.5 36t163.5 81l113 645l252 35l-179 -1014h-208l4 104q-101 -56 -210 -90t-194 -34q-96 0 -139 54t-43 144zM520 1245q145 74 324 199l82 -148q-136 -92 -330 -184z" />
<glyph unicode="&#xfb;" d="M80 178q0 43 10 98l123 703l252 35l-127 -727q-2 -14 -2 -27q0 -43 51 -43q46 0 133.5 36t163.5 81l113 645l252 35l-179 -1014h-208l4 104q-101 -56 -210 -90t-194 -34q-96 0 -139 54t-43 144zM406 1217q173 102 315 210q108 -120 237 -221l-79 -108q-100 54 -189 133 q-105 -76 -213 -133z" />
<glyph unicode="&#xfc;" d="M80 178q0 43 10 98l123 703l252 35l-127 -727q-2 -14 -2 -27q0 -43 51 -43q46 0 133.5 36t163.5 81l113 645l252 35l-179 -1014h-208l4 104q-101 -56 -210 -90t-194 -34q-96 0 -139 54t-43 144zM377 1141l39 215l200 8l-36 -215zM766 1141l39 215l201 8l-37 -215z" />
<glyph unicode="&#xfd;" horiz-adv-x="974" d="M18 -246q124 43 190 96t128 150h-84l-143 973l243 35l94 -791l236 531q29 67 29 137q0 45 -15 94l240 35q18 -59 18 -125q0 -104 -34 -178l-330 -711q-47 -93 -85.5 -150.5t-96 -112.5t-134 -95t-188.5 -78zM401 1245q145 74 324 199l82 -148q-136 -92 -330 -184z" />
<glyph unicode="&#xfe;" horiz-adv-x="1081" d="M-27 -438l326 1843l252 35l-94 -535q136 113 319 113q232 0 232 -227q0 -37 -11 -105l-51 -291q-9 -49 -16 -82t-18.5 -73.5t-24 -66.5t-32.5 -56t-44.5 -48.5t-59 -37.5t-76 -29t-95.5 -16t-119 -6q-81 0 -164 18l-72 -401zM332 199q58 -13 145 -13q59 0 98 11.5 t63.5 37.5t37.5 59.5t22 86.5l62 352q2 12 2 25q0 53 -70 53q-73 0 -153 -47t-125 -102z" />
<glyph unicode="&#xff;" horiz-adv-x="974" d="M18 -246q124 43 190 96t128 150h-84l-143 973l243 35l94 -791l236 531q29 67 29 137q0 45 -15 94l240 35q18 -59 18 -125q0 -104 -34 -178l-330 -711q-47 -93 -85.5 -150.5t-96 -112.5t-134 -95t-188.5 -78zM264 1141l39 215l201 8l-37 -215zM653 1141l39 215l201 8 l-37 -215z" />
<glyph unicode="&#x152;" horiz-adv-x="1808" d="M98 338q0 49 8 90l93 526q24 139 86 226.5t182 135.5t305 48h1081l-41 -223h-581l-57 -326h538l-39 -223h-538l-66 -369h582l-37 -223h-1069q-225 0 -336 91t-111 247zM356 371q0 -75 52 -111.5t178 -36.5h229l162 918h-232q-135 0 -206 -51.5t-90 -157.5l-87 -494 q-6 -37 -6 -67z" />
<glyph unicode="&#x153;" horiz-adv-x="1554" d="M68 305q0 39 6 80l43 240q17 95 50.5 165.5t88.5 122.5t138 78.5t194 26.5q96 0 173 -34t120 -83q68 60 142.5 88.5t174.5 28.5q144 0 229.5 -69.5t85.5 -190.5q0 -133 -90 -217.5t-295 -147.5q-118 -36 -192 -55l-8 -47q-4 -29 -4.5 -53t20 -39t62.5 -15 q77 0 179.5 31.5t203.5 83.5l53 -188q-103 -63 -204.5 -97t-229.5 -34q-167 0 -260 106q-130 -106 -310 -106q-94 0 -166.5 26t-116 71t-65.5 102.5t-22 125.5zM311 315q0 -129 164 -129q189 0 219 174l49 279q5 30 5 45q0 127 -164 127q-96 0 -150.5 -44.5t-71.5 -137.5 l-47 -269q-4 -24 -4 -45zM975 559q49 14 149 45q82 26 118 60t36 84q0 36 -27 56.5t-73 20.5q-81 0 -126.5 -44t-58.5 -119z" />
<glyph unicode="&#x178;" horiz-adv-x="1132" d="M156 1364h252l182 -690l409 690h287l-612 -969l-70 -395h-254l72 408zM412 1493l34 199h207l-35 -199h-206zM840 1493l34 199h207l-34 -199h-207z" />
<glyph unicode="&#x2c6;" horiz-adv-x="778" d="M236 1217q173 102 315 210q108 -120 237 -221l-79 -108q-100 54 -189 133q-105 -76 -213 -133z" />
<glyph unicode="&#x2dc;" horiz-adv-x="874" d="M236 1208q88 158 221 158q40 0 82.5 -22t79.5 -44t65 -22q33 0 53.5 17.5t42.5 58.5l105 -58q-39 -85 -87 -128.5t-130 -43.5q-46 0 -86.5 21.5t-74 43t-63.5 21.5q-25 0 -49 -15.5t-37.5 -30.5t-31.5 -40z" />
<glyph unicode="&#x2000;" horiz-adv-x="887" />
<glyph unicode="&#x2001;" horiz-adv-x="1774" />
<glyph unicode="&#x2002;" horiz-adv-x="887" />
<glyph unicode="&#x2003;" horiz-adv-x="1774" />
<glyph unicode="&#x2004;" horiz-adv-x="591" />
<glyph unicode="&#x2005;" horiz-adv-x="443" />
<glyph unicode="&#x2006;" horiz-adv-x="295" />
<glyph unicode="&#x2007;" horiz-adv-x="295" />
<glyph unicode="&#x2008;" horiz-adv-x="221" />
<glyph unicode="&#x2009;" horiz-adv-x="354" />
<glyph unicode="&#x200a;" horiz-adv-x="98" />
<glyph unicode="&#x2010;" horiz-adv-x="753" d="M135 473l37 205h508l-37 -205h-508z" />
<glyph unicode="&#x2011;" horiz-adv-x="753" d="M135 473l37 205h508l-37 -205h-508z" />
<glyph unicode="&#x2012;" horiz-adv-x="753" d="M135 473l37 205h508l-37 -205h-508z" />
<glyph unicode="&#x2013;" horiz-adv-x="995" d="M135 473l37 205h750l-37 -205h-750z" />
<glyph unicode="&#x2014;" horiz-adv-x="1292" d="M135 473l37 205h1047l-37 -205h-1047z" />
<glyph unicode="&#x2018;" horiz-adv-x="555" d="M215 856l55 318l205 266l90 -70l-145 -215h94l-53 -299h-246z" />
<glyph unicode="&#x2019;" horiz-adv-x="534" d="M215 891l145 215h-94l53 299h246l-55 -318l-205 -266z" />
<glyph unicode="&#x201a;" horiz-adv-x="555" d="M20 -215l146 215h-94l53 299h246l-56 -317l-204 -267z" />
<glyph unicode="&#x201c;" horiz-adv-x="968" d="M215 856l55 318l205 266l90 -70l-145 -215h94l-53 -299h-246zM629 856l55 318l205 266l90 -70l-145 -215h94l-54 -299h-245z" />
<glyph unicode="&#x201d;" horiz-adv-x="968" d="M215 891l145 215h-94l53 299h246l-55 -318l-205 -266zM629 891l145 215h-94l53 299h246l-55 -318l-205 -266z" />
<glyph unicode="&#x201e;" horiz-adv-x="968" d="M20 -215l146 215h-94l53 299h246l-56 -317l-204 -267zM434 -215l146 215h-95l54 299h245l-55 -317l-205 -267z" />
<glyph unicode="&#x2022;" horiz-adv-x="731" d="M125 662q0 110 77 188t185 78q109 0 185.5 -78t76.5 -188q0 -109 -77 -187t-185 -78q-107 0 -184.5 78t-77.5 187z" />
<glyph unicode="&#x2026;" horiz-adv-x="1701" d="M82 0l53 299h248l-53 -299h-248zM649 0l53 299h248l-53 -299h-248zM1217 0l53 299h248l-54 -299h-247z" />
<glyph unicode="&#x202f;" horiz-adv-x="354" />
<glyph unicode="&#x2039;" horiz-adv-x="579" d="M74 500l317 393l152 -127l-230 -268l131 -303l-178 -89z" />
<glyph unicode="&#x203a;" horiz-adv-x="579" d="M49 233l230 269l-132 303l179 88l192 -393l-317 -394z" />
<glyph unicode="&#x205f;" horiz-adv-x="443" />
<glyph unicode="&#x20ac;" horiz-adv-x="1097" d="M57 442l25 140h166l28 163h-167l24 140h168l12 61q38 216 165.5 306.5t379.5 90.5q145 0 299 -47l-53 -206q-156 34 -270 34q-138 0 -199 -43.5t-84 -171.5l-4 -24h387l-25 -140h-387l-28 -163h389l-25 -140h-389l-2 -12q-8 -50 -8 -84q0 -79 46 -113t167 -34 q132 0 274 28l8 -207q-129 -40 -325 -40q-211 0 -316.5 89.5t-105.5 239.5q0 40 8 86l8 47h-166z" />
<glyph unicode="&#x2122;" horiz-adv-x="1011" d="M225 1286v78h316v-78h-117v-340h-84v340h-115zM608 946l17 418h88l102 -277l103 277h88l16 -418h-82l-4 260l-78 -207h-86l-78 203l-4 -256h-82z" />
<glyph unicode="&#x25fc;" horiz-adv-x="1013" d="M0 0v1014h1014v-1014h-1014z" />
<glyph unicode="&#xfb03;" horiz-adv-x="1970" d="M-14 -276q60 59 90 114.5t43 136.5l145 822h-153l34 200h154l27 154q28 161 103.5 228t240.5 67q132 0 233 -39l-49 -190q-86 24 -164 24q-58 0 -84 -19.5t-35 -70.5l-26 -154h479l25 144q28 161 109 233t245 72q160 0 346 -70l-49 -180q-63 21 -142.5 35t-136.5 14 q-62 0 -89 -21t-36 -73l-26 -154h524l119 17l-178 -1014h-246l139 797h-393l-150 -844q-22 -121 -71 -205.5t-146 -171.5l-157 148q60 59 90 114.5t43 136.5l145 822h-479l-150 -844q-22 -121 -71 -205.5t-146 -171.5z" />
<glyph unicode="&#xfb04;" horiz-adv-x="1970" d="M-14 -276q60 59 90 114.5t43 136.5l145 822h-153l34 200h154l27 154q28 161 103.5 228t240.5 67q132 0 233 -39l-49 -190q-86 24 -164 24q-58 0 -84 -19.5t-35 -70.5l-26 -154h479l25 144q19 110 57.5 174t115 97.5t201.5 33.5q137 0 314 -41l252 35l-254 -1440h-246 l215 1219q-167 30 -277 30q-64 0 -93 -22.5t-38 -75.5l-26 -154h248l-54 -200h-229l-150 -844q-22 -121 -71 -205.5t-146 -171.5l-157 148q60 59 90 114.5t43 136.5l145 822h-479l-150 -844q-22 -121 -71 -205.5t-146 -171.5z" />
</font>
</defs>
</svg>
